<svg width="50" height="50" viewBox="0 0 50 50" fill="none" xmlns="http://www.w3.org/2000/svg">
<path d="M40.625 43.75C42.2826 43.75 43.8723 43.0915 45.0444 41.9194C46.2165 40.7473 46.875 39.1576 46.875 37.5V28.125C46.875 26.4674 46.2165 24.8777 45.0444 23.7056C43.8723 22.5335 42.2826 21.875 40.625 21.875H9.375C7.7174 21.875 6.12769 22.5335 4.95558 23.7056C3.78348 24.8777 3.125 26.4674 3.125 28.125V37.5C3.125 39.1576 3.78348 40.7473 4.95558 41.9194C6.12769 43.0915 7.7174 43.75 9.375 43.75H40.625ZM3.125 21.1375V12.5C3.125 10.8424 3.78348 9.25269 4.95558 8.08058C6.12769 6.90848 7.7174 6.25 9.375 6.25H20.5812C21.8237 6.25054 23.0152 6.74435 23.8937 7.62292L28.3146 12.0417C28.6062 12.3354 29.0042 12.5 29.4187 12.5H40.625C42.2826 12.5 43.8723 13.1585 45.0444 14.3306C46.2165 15.5027 46.875 17.0924 46.875 18.75V21.1375C45.158 19.5972 42.9317 18.7467 40.625 18.75H9.375C7.06832 18.7467 4.84202 19.5972 3.125 21.1375Z" fill="#304480"/>
</svg>
