<svg width="60" height="60" viewBox="0 0 60 60" fill="none" xmlns="http://www.w3.org/2000/svg">
<circle cx="30" cy="30" r="29.5" fill="white" stroke="black"/>
<path d="M34.9999 22C34.9999 23.3261 34.4731 24.5979 33.5354 25.5355C32.5977 26.4732 31.326 27 29.9999 27C28.6738 27 27.402 26.4732 26.4644 25.5355C25.5267 24.5979 24.9999 23.3261 24.9999 22C24.9999 20.6739 25.5267 19.4021 26.4644 18.4645C27.402 17.5268 28.6738 17 29.9999 17C31.326 17 32.5977 17.5268 33.5354 18.4645C34.4731 19.4021 34.9999 20.6739 34.9999 22ZM20.0012 40.824C20.0441 38.2005 21.1163 35.6989 22.9868 33.8587C24.8572 32.0186 27.376 30.9873 29.9999 30.9873C32.6238 30.9873 35.1425 32.0186 37.013 33.8587C38.8834 35.6989 39.9557 38.2005 39.9986 40.824C36.8617 42.2624 33.4508 43.0047 29.9999 43C26.4319 43 23.0452 42.2213 20.0012 40.824Z" stroke="black" stroke-width="1.5" stroke-linecap="round" stroke-linejoin="round"/>
</svg>
