<svg width="80" height="80" viewBox="0 0 80 80" fill="none" xmlns="http://www.w3.org/2000/svg">
<g clip-path="url(#clip0_1067_390)">
<path d="M76.5352 5H23.6269C22.7501 5 21.9093 5.3511 21.2893 5.97607C20.6693 6.60103 20.321 7.44867 20.321 8.3325V22.5L50.081 31.25L79.841 22.5V8.3325C79.841 7.44867 79.4928 6.60103 78.8728 5.97607C78.2528 5.3511 77.412 5 76.5352 5Z" fill="#41A5EE"/>
<path d="M79.841 22.5H20.321V40L50.081 48.75L79.841 40V22.5Z" fill="#2B7CD3"/>
<path d="M79.841 40H20.321V57.5L50.081 66.25L79.841 57.5V40Z" fill="#185ABD"/>
<path d="M79.841 57.5H20.321V71.6675C20.321 72.5513 20.6693 73.399 21.2893 74.0239C21.9093 74.6489 22.7501 75 23.6269 75H76.5352C77.412 75 78.2528 74.6489 78.8728 74.0239C79.4928 73.399 79.841 72.5513 79.841 71.6675V57.5Z" fill="#103F91"/>
<path opacity="0.1" d="M41.8152 17.5H20.321V65H41.8152C42.6912 64.9974 43.5305 64.6454 44.1499 64.021C44.7693 63.3966 45.1184 62.5505 45.121 61.6675V20.8325C45.1184 19.9495 44.7693 19.1034 44.1499 18.479C43.5305 17.8546 42.6912 17.5026 41.8152 17.5Z" fill="black"/>
<path opacity="0.2" d="M39.3352 20H20.321V67.5H39.3352C40.2112 67.4974 41.0505 67.1454 41.6699 66.521C42.2893 65.8966 42.6384 65.0505 42.641 64.1675V23.3325C42.6384 22.4495 42.2893 21.6034 41.6699 20.979C41.0505 20.3546 40.2112 20.0026 39.3352 20Z" fill="black"/>
<path opacity="0.2" d="M39.3352 20H20.321V62.5H39.3352C40.2112 62.4974 41.0505 62.1454 41.6699 61.521C42.2893 60.8966 42.6384 60.0505 42.641 59.1675V23.3325C42.6384 22.4495 42.2893 21.6034 41.6699 20.979C41.0505 20.3546 40.2112 20.0026 39.3352 20Z" fill="black"/>
<path opacity="0.2" d="M36.8552 20H20.321V62.5H36.8552C37.7312 62.4974 38.5705 62.1454 39.1899 61.521C39.8093 60.8966 40.1584 60.0505 40.161 59.1675V23.3325C40.1584 22.4495 39.8093 21.6034 39.1899 20.979C38.5705 20.3546 37.7312 20.0026 36.8552 20Z" fill="black"/>
<path d="M3.7868 20H36.8551C37.7319 20 38.5727 20.3511 39.1927 20.9761C39.8127 21.601 40.161 22.4487 40.161 23.3325V56.6675C40.161 57.5513 39.8127 58.399 39.1927 59.0239C38.5727 59.6489 37.7319 60 36.8551 60H3.7868C2.91003 60 2.06918 59.6489 1.44922 59.0239C0.82925 58.399 0.480957 57.5513 0.480957 56.6675L0.480957 23.3325C0.480957 22.4487 0.82925 21.601 1.44922 20.9761C2.06918 20.3511 2.91003 20 3.7868 20Z" fill="#185ABD"/>
<path d="M30.1169 52.5H25.6529L20.4449 35.25L14.9889 52.5H10.5249L5.56494 27.5H10.0289L13.5009 45L18.7089 28H22.4289L27.3889 45L30.8609 27.5H35.0769L30.1169 52.5Z" fill="white"/>
</g>
<defs>
<clipPath id="clip0_1067_390">
<rect width="80" height="80" fill="white"/>
</clipPath>
</defs>
</svg>
